<svg id="Layer_1" enable-background="new 0 0 512.16 512.16" height="512" viewBox="0 0 512.16 512.16" width="512" xmlns="http://www.w3.org/2000/svg"><path d="m424.723 401.691v35.179c28.461-31.886 47.34-71.314 54.452-113.27-12.882 29.509-31.19 55.737-54.452 78.091z"/><path d="m407.645 454.051v-37.374c-17.558 14.021-36.861 25.477-57.637 34.167v41.123c21.031-9.591 40.362-22.304 57.637-37.916z"/><path d="m256.08 74.16c-83.87 0-152.12 68.25-152.12 152.12s68.25 152.12 152.12 152.12 152.12-68.25 152.12-152.12-68.25-152.12-152.12-152.12zm-6.58 34.92c3.09-5.22 10.67-5.22 13.76 0 62.89 106.21 61.51 103.23 62.09 105.51.73 2.87-.19 6.02-2.56 8.05-1.59 1.35.46.33-63.57 24.62-1.83.69-3.85.69-5.68 0-64.31-24.4-63.79-22.82-65.77-27.69-2.18-5.35-2.45-2.08 61.73-110.49zm74.54 147.68-61.22 83.14c-3.2 4.35-9.69 4.34-12.88 0l-61.21-83.14c-4.72-6.4 1.85-15.04 9.28-12.22l58.37 22.14 58.38-22.14c7.447-2.826 13.989 5.829 9.28 12.22z"/><path d="m256.08 0c-124.77 0-226.28 101.51-226.28 226.28 0 124.61 100.97 226.28 226.28 226.28 124.87 0 226.28-101.28 226.28-226.28 0-124.77-101.51-226.28-226.28-226.28zm0 395.48c-93.3 0-169.2-75.9-169.2-169.2s75.9-169.2 169.2-169.2 169.2 75.9 169.2 169.2-75.9 169.2-169.2 169.2z"/><path d="m332.93 498.944v-41.7c-22.013 7.332-44.91 11.429-68.311 12.231v42.685c23.474-.865 46.391-5.292 68.311-13.216z"/><path d="m247.541 512.16v-42.685c-23.401-.802-46.297-4.898-68.311-12.231v41.7c21.921 7.924 44.838 12.351 68.311 13.216z"/><path d="m32.985 323.6c7.113 41.956 25.991 81.385 54.452 113.27v-35.18c-23.183-22.276-41.532-48.489-54.452-78.09z"/><path d="m162.152 491.967v-41.123c-20.775-8.69-40.078-20.145-57.637-34.168v37.375c17.277 15.614 36.607 28.326 57.637 37.916z"/></svg>